<?xml version="1.0" encoding="utf-8"?>
<!-- Generator: Adobe Illustrator 15.0.0, SVG Export Plug-In . SVG Version: 6.00 Build 0)  -->
<!DOCTYPE svg PUBLIC "-//W3C//DTD SVG 1.1//EN" "http://www.w3.org/Graphics/SVG/1.1/DTD/svg11.dtd">
<svg version="1.1"  xmlns="http://www.w3.org/2000/svg" xmlns:xlink="http://www.w3.org/1999/xlink" x="0px" y="0px"
	 width="48px" height="48px" viewBox="0 0 48 48" enable-background="new 0 0 48 48" xml:space="preserve">
<path fill="#37474F" d="M33,27l6,0.001c3.314,0,6,2.686,6,5.999l0,0c0,3.313-2.686,6-6,6h-6V27z"/>
<g>
	<circle fill="#546E7A" cx="39" cy="33" r="4"/>
	<path fill="#546E7A" d="M11,25.001c-4.418,0-8,3.582-8,8l0,0c0,4.419,3.582,8,8,8V25.001z"/>
</g>
<rect x="13" y="23" fill="#DD2C00" width="19" height="2"/>
<g>
	<path fill="#FF3D00" d="M11,25.001V41c0,0,17.334,0,20,0c3,0,3-3,3-3V25.001H11z"/>
	<path fill="#FF3D00" d="M31,7c-3,0-14,0-17,0s-3,3-3,3v13h23V10C34,10,34,7,31,7z"/>
</g>
<g>
	<path fill="#263238" d="M23,28H10.976c-2.717,0-4.919,2.283-4.919,5l0,0c0,2.717,2.202,5,4.919,5H23V28z"/>
	<path fill="#263238" d="M29,19c0,0.553-0.447,1-1,1H15c-0.553,0-1-0.447-1-1v-8c0-0.553,0.447-1,1-1h13c0.553,0,1,0.447,1,1V19z"/>
</g>
<g>
	<path fill="#90A4AE" d="M31,38c0,0.552-0.447,1-1,1H18c-0.553,0-1-0.448-1-1V28c0-0.552,0.447-1,1-1h12c0.553,0,1,0.448,1,1V38z"/>
	<path fill="#90A4AE" d="M31,20c0,0.552-0.447,1-1,1H18c-0.553,0-1-0.448-1-1V10c0-0.552,0.447-1,1-1h12c0.553,0,1,0.448,1,1V20z"/>
</g>
<g>
	<rect x="19" y="11" fill="#BBDEFB" width="10" height="8"/>
	<rect x="19" y="29" fill="#BBDEFB" width="10" height="8"/>
</g>
<g>
	<rect x="11" y="30" fill="#ECEFF1" width="2" height="6"/>
	<rect x="9" y="32" fill="#ECEFF1" width="6" height="2"/>
</g>
<g>
	<circle fill="#AEEA00" cx="39" cy="33" r="2"/>
	<path fill="#AEEA00" d="M3,32.994C3,32.996,3,32.998,3,33c0,0.302,0.022,0.597,0.052,0.891C3.057,33.928,3.064,33.963,3.068,34H4
		c0.553,0,1-0.448,1-1s-0.447-1-1-1H3.069c-0.005,0.038-0.013,0.075-0.018,0.113C3.023,32.404,3.001,32.695,3,32.994z"/>
</g>
</svg>
